<svg xmlns="http://www.w3.org/2000/svg" width="440" height="364" viewBox="0 0 440 364">
<rect width="440" height="364" fill="#0d1117"/>
<path d="M24.0,60.0 L60.0,60.0 L65.0,60.0 L70.0,60.1 L75.0,60.4 L80.0,60.6 L85.0,60.8 L90.0,61.8 L95.0,61.5 L100.0,61.9 L105.0,62.8 L110.0,62.7 L115.0,62.8 L120.0,62.1 L125.0,61.6 L130.0,61.6 L135.0,61.6 L140.0,61.8 L145.0,61.3 L150.0,61.3 L155.0,61.4 L160.0,60.7 L165.0,61.3 L170.0,60.9 L175.0,61.2 L180.0,61.3 L185.0,61.2 L190.0,61.3 L195.0,61.9 L200.0,61.5 L205.0,61.7 L210.0,60.5 L215.0,60.2 L220.0,60.3 L225.0,59.6 L230.0,59.1 L235.0,58.6 L240.0,57.6 L245.0,57.9 L250.0,56.8 L255.0,57.2 L260.0,56.8 L265.0,56.1 L270.0,56.6 L275.0,56.6 L280.0,56.7 L285.0,55.8 L290.0,55.6 L295.0,54.6 L300.0,54.2 L305.0,52.9 L310.0,53.2 L315.0,52.4 L320.0,51.8 L325.0,53.0 L330.0,52.6 L335.0,53.3 L340.0,53.8 L345.0,55.1 L350.0,56.3 L355.0,57.4 L360.0,58.7 L365.0,59.5 L370.0,59.8 L375.0,60.1 L380.0,60.0 L416.0,60.0 L416,364 L24,364 Z" fill="#0d1117" stroke="none"/>
<path d="M24.0,60.0 L60.0,60.0 L65.0,60.0 L70.0,60.1 L75.0,60.4 L80.0,60.6 L85.0,60.8 L90.0,61.8 L95.0,61.5 L100.0,61.9 L105.0,62.8 L110.0,62.7 L115.0,62.8 L120.0,62.1 L125.0,61.6 L130.0,61.6 L135.0,61.6 L140.0,61.8 L145.0,61.3 L150.0,61.3 L155.0,61.4 L160.0,60.7 L165.0,61.3 L170.0,60.9 L175.0,61.2 L180.0,61.3 L185.0,61.2 L190.0,61.3 L195.0,61.9 L200.0,61.5 L205.0,61.7 L210.0,60.5 L215.0,60.2 L220.0,60.3 L225.0,59.6 L230.0,59.1 L235.0,58.6 L240.0,57.6 L245.0,57.9 L250.0,56.8 L255.0,57.2 L260.0,56.8 L265.0,56.1 L270.0,56.6 L275.0,56.6 L280.0,56.7 L285.0,55.8 L290.0,55.6 L295.0,54.6 L300.0,54.2 L305.0,52.9 L310.0,53.2 L315.0,52.4 L320.0,51.8 L325.0,53.0 L330.0,52.6 L335.0,53.3 L340.0,53.8 L345.0,55.1 L350.0,56.3 L355.0,57.4 L360.0,58.7 L365.0,59.5 L370.0,59.8 L375.0,60.1 L380.0,60.0 L416.0,60.0" fill="none" stroke="#c9d1d9" stroke-width="1" stroke-linejoin="round"/>
<path d="M24.0,76.0 L60.0,76.0 L65.0,76.1 L70.0,76.0 L75.0,76.0 L80.0,76.1 L85.0,75.5 L90.0,75.5 L95.0,74.5 L100.0,74.8 L105.0,73.5 L110.0,73.5 L115.0,72.1 L120.0,72.3 L125.0,72.7 L130.0,72.6 L135.0,72.3 L140.0,72.9 L145.0,73.6 L150.0,73.7 L155.0,74.2 L160.0,74.2 L165.0,75.4 L170.0,75.9 L175.0,75.5 L180.0,76.0 L185.0,76.2 L190.0,75.9 L195.0,76.4 L200.0,76.3 L205.0,76.2 L210.0,75.9 L215.0,76.7 L220.0,76.4 L225.0,76.2 L230.0,76.1 L235.0,76.2 L240.0,76.9 L245.0,76.2 L250.0,76.6 L255.0,77.5 L260.0,78.1 L265.0,77.8 L270.0,78.6 L275.0,78.3 L280.0,79.2 L285.0,79.0 L290.0,79.6 L295.0,78.7 L300.0,78.8 L305.0,78.3 L310.0,78.2 L315.0,78.2 L320.0,77.7 L325.0,77.6 L330.0,76.3 L335.0,75.5 L340.0,75.3 L345.0,75.3 L350.0,75.5 L355.0,75.1 L360.0,75.2 L365.0,75.4 L370.0,75.7 L375.0,75.8 L380.0,76.0 L416.0,76.0 L416,364 L24,364 Z" fill="#0d1117" stroke="none"/>
<path d="M24.0,76.0 L60.0,76.0 L65.0,76.1 L70.0,76.0 L75.0,76.0 L80.0,76.1 L85.0,75.5 L90.0,75.5 L95.0,74.5 L100.0,74.8 L105.0,73.5 L110.0,73.5 L115.0,72.1 L120.0,72.3 L125.0,72.7 L130.0,72.6 L135.0,72.3 L140.0,72.9 L145.0,73.6 L150.0,73.7 L155.0,74.2 L160.0,74.2 L165.0,75.4 L170.0,75.9 L175.0,75.5 L180.0,76.0 L185.0,76.2 L190.0,75.9 L195.0,76.4 L200.0,76.3 L205.0,76.2 L210.0,75.9 L215.0,76.7 L220.0,76.4 L225.0,76.2 L230.0,76.1 L235.0,76.2 L240.0,76.9 L245.0,76.2 L250.0,76.6 L255.0,77.5 L260.0,78.1 L265.0,77.8 L270.0,78.6 L275.0,78.3 L280.0,79.2 L285.0,79.0 L290.0,79.6 L295.0,78.7 L300.0,78.8 L305.0,78.3 L310.0,78.2 L315.0,78.2 L320.0,77.7 L325.0,77.6 L330.0,76.3 L335.0,75.5 L340.0,75.3 L345.0,75.3 L350.0,75.5 L355.0,75.1 L360.0,75.2 L365.0,75.4 L370.0,75.7 L375.0,75.8 L380.0,76.0 L416.0,76.0" fill="none" stroke="#c9d1d9" stroke-width="1" stroke-linejoin="round"/>
<path d="M24.0,92.0 L60.0,92.0 L65.0,92.0 L70.0,91.9 L75.0,91.4 L80.0,90.8 L85.0,89.4 L90.0,87.9 L95.0,87.2 L100.0,85.5 L105.0,85.3 L110.0,86.1 L115.0,85.6 L120.0,86.6 L125.0,87.9 L130.0,88.9 L135.0,89.2 L140.0,90.8 L145.0,92.4 L150.0,92.9 L155.0,94.6 L160.0,94.4 L165.0,95.1 L170.0,94.1 L175.0,93.6 L180.0,92.5 L185.0,90.3 L190.0,88.8 L195.0,86.8 L200.0,86.0 L205.0,84.5 L210.0,82.9 L215.0,83.1 L220.0,82.2 L225.0,82.4 L230.0,83.3 L235.0,83.1 L240.0,84.6 L245.0,85.2 L250.0,87.1 L255.0,87.8 L260.0,90.0 L265.0,90.1 L270.0,91.3 L275.0,90.3 L280.0,90.0 L285.0,89.0 L290.0,87.6 L295.0,86.5 L300.0,85.8 L305.0,84.7 L310.0,82.9 L315.0,83.0 L320.0,82.2 L325.0,82.5 L330.0,82.0 L335.0,83.2 L340.0,83.2 L345.0,84.7 L350.0,86.2 L355.0,87.6 L360.0,89.1 L365.0,90.4 L370.0,91.4 L375.0,91.9 L380.0,92.0 L416.0,92.0 L416,364 L24,364 Z" fill="#0d1117" stroke="none"/>
<path d="M24.0,92.0 L60.0,92.0 L65.0,92.0 L70.0,91.9 L75.0,91.4 L80.0,90.8 L85.0,89.4 L90.0,87.9 L95.0,87.2 L100.0,85.5 L105.0,85.3 L110.0,86.1 L115.0,85.6 L120.0,86.6 L125.0,87.9 L130.0,88.9 L135.0,89.2 L140.0,90.8 L145.0,92.4 L150.0,92.9 L155.0,94.6 L160.0,94.4 L165.0,95.1 L170.0,94.1 L175.0,93.6 L180.0,92.5 L185.0,90.3 L190.0,88.8 L195.0,86.8 L200.0,86.0 L205.0,84.5 L210.0,82.9 L215.0,83.1 L220.0,82.2 L225.0,82.4 L230.0,83.3 L235.0,83.1 L240.0,84.6 L245.0,85.2 L250.0,87.1 L255.0,87.8 L260.0,90.0 L265.0,90.1 L270.0,91.3 L275.0,90.3 L280.0,90.0 L285.0,89.0 L290.0,87.6 L295.0,86.5 L300.0,85.8 L305.0,84.7 L310.0,82.9 L315.0,83.0 L320.0,82.2 L325.0,82.5 L330.0,82.0 L335.0,83.2 L340.0,83.2 L345.0,84.7 L350.0,86.2 L355.0,87.6 L360.0,89.1 L365.0,90.4 L370.0,91.4 L375.0,91.9 L380.0,92.0 L416.0,92.0" fill="none" stroke="#c9d1d9" stroke-width="1" stroke-linejoin="round"/>
<path d="M24.0,108.0 L60.0,108.0 L65.0,107.6 L70.0,106.7 L75.0,105.7 L80.0,103.9 L85.0,102.9 L90.0,101.0 L95.0,100.3 L100.0,99.2 L105.0,99.2 L110.0,99.6 L115.0,99.5 L120.0,99.9 L125.0,99.2 L130.0,99.5 L135.0,98.6 L140.0,99.0 L145.0,99.2 L150.0,98.2 L155.0,98.5 L160.0,97.4 L165.0,97.4 L170.0,97.7 L175.0,98.7 L180.0,98.2 L185.0,99.3 L190.0,100.4 L195.0,102.5 L200.0,103.8 L205.0,106.0 L210.0,106.5 L215.0,108.5 L220.0,109.6 L225.0,108.9 L230.0,109.2 L235.0,109.0 L240.0,108.3 L245.0,107.3 L250.0,105.9 L255.0,104.5 L260.0,104.1 L265.0,103.6 L270.0,102.6 L275.0,103.1 L280.0,102.2 L285.0,102.9 L290.0,103.4 L295.0,103.4 L300.0,103.8 L305.0,105.3 L310.0,106.7 L315.0,107.6 L320.0,108.1 L325.0,108.8 L330.0,109.0 L335.0,108.3 L340.0,107.9 L345.0,106.4 L350.0,105.5 L355.0,105.7 L360.0,105.6 L365.0,106.4 L370.0,107.2 L375.0,107.7 L380.0,108.0 L416.0,108.0 L416,364 L24,364 Z" fill="#0d1117" stroke="none"/>
<path d="M24.0,108.0 L60.0,108.0 L65.0,107.6 L70.0,106.7 L75.0,105.7 L80.0,103.9 L85.0,102.9 L90.0,101.0 L95.0,100.3 L100.0,99.2 L105.0,99.2 L110.0,99.6 L115.0,99.5 L120.0,99.9 L125.0,99.2 L130.0,99.5 L135.0,98.6 L140.0,99.0 L145.0,99.2 L150.0,98.2 L155.0,98.5 L160.0,97.4 L165.0,97.4 L170.0,97.7 L175.0,98.7 L180.0,98.2 L185.0,99.3 L190.0,100.4 L195.0,102.5 L200.0,103.8 L205.0,106.0 L210.0,106.5 L215.0,108.5 L220.0,109.6 L225.0,108.9 L230.0,109.2 L235.0,109.0 L240.0,108.3 L245.0,107.3 L250.0,105.9 L255.0,104.5 L260.0,104.1 L265.0,103.6 L270.0,102.6 L275.0,103.1 L280.0,102.2 L285.0,102.9 L290.0,103.4 L295.0,103.4 L300.0,103.8 L305.0,105.3 L310.0,106.7 L315.0,107.6 L320.0,108.1 L325.0,108.8 L330.0,109.0 L335.0,108.3 L340.0,107.9 L345.0,106.4 L350.0,105.5 L355.0,105.7 L360.0,105.6 L365.0,106.4 L370.0,107.2 L375.0,107.7 L380.0,108.0 L416.0,108.0" fill="none" stroke="#c9d1d9" stroke-width="1" stroke-linejoin="round"/>
<path d="M24.0,124.0 L60.0,124.0 L65.0,123.5 L70.0,122.7 L75.0,121.4 L80.0,120.2 L85.0,119.8 L90.0,120.6 L95.0,121.7 L100.0,122.8 L105.0,124.8 L110.0,126.2 L115.0,127.3 L120.0,125.9 L125.0,125.2 L130.0,124.2 L135.0,122.7 L140.0,121.0 L145.0,120.6 L150.0,119.0 L155.0,117.7 L160.0,117.8 L165.0,117.2 L170.0,116.7 L175.0,117.3 L180.0,118.1 L185.0,118.7 L190.0,120.5 L195.0,121.3 L200.0,122.3 L205.0,123.7 L210.0,124.2 L215.0,124.8 L220.0,125.0 L225.0,124.0 L230.0,122.7 L235.0,122.0 L240.0,120.3 L245.0,117.8 L250.0,116.9 L255.0,116.0 L260.0,113.9 L265.0,112.9 L270.0,112.6 L275.0,112.8 L280.0,113.0 L285.0,113.0 L290.0,113.0 L295.0,113.7 L300.0,114.2 L305.0,114.4 L310.0,115.2 L315.0,115.7 L320.0,115.1 L325.0,115.5 L330.0,115.9 L335.0,116.6 L340.0,115.7 L345.0,116.3 L350.0,117.3 L355.0,118.4 L360.0,119.4 L365.0,121.0 L370.0,122.6 L375.0,123.6 L380.0,124.0 L416.0,124.0 L416,364 L24,364 Z" fill="#0d1117" stroke="none"/>
<path d="M24.0,124.0 L60.0,124.0 L65.0,123.5 L70.0,122.7 L75.0,121.4 L80.0,120.2 L85.0,119.8 L90.0,120.6 L95.0,121.7 L100.0,122.8 L105.0,124.8 L110.0,126.2 L115.0,127.3 L120.0,125.9 L125.0,125.2 L130.0,124.2 L135.0,122.7 L140.0,121.0 L145.0,120.6 L150.0,119.0 L155.0,117.7 L160.0,117.8 L165.0,117.2 L170.0,116.7 L175.0,117.3 L180.0,118.1 L185.0,118.7 L190.0,120.5 L195.0,121.3 L200.0,122.3 L205.0,123.7 L210.0,124.2 L215.0,124.8 L220.0,125.0 L225.0,124.0 L230.0,122.7 L235.0,122.0 L240.0,120.3 L245.0,117.8 L250.0,116.9 L255.0,116.0 L260.0,113.9 L265.0,112.9 L270.0,112.6 L275.0,112.8 L280.0,113.0 L285.0,113.0 L290.0,113.0 L295.0,113.7 L300.0,114.2 L305.0,114.4 L310.0,115.2 L315.0,115.7 L320.0,115.1 L325.0,115.5 L330.0,115.9 L335.0,116.6 L340.0,115.7 L345.0,116.3 L350.0,117.3 L355.0,118.4 L360.0,119.4 L365.0,121.0 L370.0,122.6 L375.0,123.6 L380.0,124.0 L416.0,124.0" fill="none" stroke="#c9d1d9" stroke-width="1" stroke-linejoin="round"/>
<path d="M24.0,140.0 L60.0,140.0 L65.0,139.7 L70.0,138.8 L75.0,137.6 L80.0,136.1 L85.0,135.1 L90.0,134.7 L95.0,135.3 L100.0,135.9 L105.0,137.4 L110.0,137.4 L115.0,137.9 L120.0,136.3 L125.0,135.5 L130.0,134.3 L135.0,133.5 L140.0,132.1 L145.0,131.9 L150.0,130.8 L155.0,129.8 L160.0,129.7 L165.0,130.7 L170.0,130.5 L175.0,131.6 L180.0,132.2 L185.0,133.4 L190.0,134.4 L195.0,136.5 L200.0,137.1 L205.0,139.0 L210.0,139.0 L215.0,140.1 L220.0,140.6 L225.0,140.7 L230.0,139.0 L235.0,138.4 L240.0,136.9 L245.0,135.9 L250.0,135.1 L255.0,135.1 L260.0,134.9 L265.0,134.6 L270.0,134.2 L275.0,134.8 L280.0,134.4 L285.0,135.1 L290.0,135.1 L295.0,135.4 L300.0,136.0 L305.0,135.7 L310.0,135.3 L315.0,135.4 L320.0,134.4 L325.0,134.4 L330.0,134.3 L335.0,133.0 L340.0,133.1 L345.0,133.4 L350.0,134.2 L355.0,134.8 L360.0,136.1 L365.0,137.6 L370.0,138.8 L375.0,139.5 L380.0,140.0 L416.0,140.0 L416,364 L24,364 Z" fill="#0d1117" stroke="none"/>
<path d="M24.0,140.0 L60.0,140.0 L65.0,139.7 L70.0,138.8 L75.0,137.6 L80.0,136.1 L85.0,135.1 L90.0,134.7 L95.0,135.3 L100.0,135.9 L105.0,137.4 L110.0,137.4 L115.0,137.9 L120.0,136.3 L125.0,135.5 L130.0,134.3 L135.0,133.5 L140.0,132.1 L145.0,131.9 L150.0,130.8 L155.0,129.8 L160.0,129.7 L165.0,130.7 L170.0,130.5 L175.0,131.6 L180.0,132.2 L185.0,133.4 L190.0,134.4 L195.0,136.5 L200.0,137.1 L205.0,139.0 L210.0,139.0 L215.0,140.1 L220.0,140.6 L225.0,140.7 L230.0,139.0 L235.0,138.4 L240.0,136.9 L245.0,135.9 L250.0,135.1 L255.0,135.1 L260.0,134.9 L265.0,134.6 L270.0,134.2 L275.0,134.8 L280.0,134.4 L285.0,135.1 L290.0,135.1 L295.0,135.4 L300.0,136.0 L305.0,135.7 L310.0,135.3 L315.0,135.4 L320.0,134.4 L325.0,134.4 L330.0,134.3 L335.0,133.0 L340.0,133.1 L345.0,133.4 L350.0,134.2 L355.0,134.8 L360.0,136.1 L365.0,137.6 L370.0,138.8 L375.0,139.5 L380.0,140.0 L416.0,140.0" fill="none" stroke="#c9d1d9" stroke-width="1" stroke-linejoin="round"/>
<path d="M24.0,156.0 L60.0,156.0 L65.0,155.7 L70.0,154.6 L75.0,153.4 L80.0,152.3 L85.0,151.4 L90.0,151.1 L95.0,152.2 L100.0,153.5 L105.0,154.9 L110.0,156.7 L115.0,156.9 L120.0,156.5 L125.0,156.0 L130.0,155.8 L135.0,155.1 L140.0,154.4 L145.0,153.8 L150.0,152.4 L155.0,152.7 L160.0,151.4 L165.0,152.1 L170.0,151.4 L175.0,151.6 L180.0,150.2 L185.0,149.7 L190.0,150.0 L195.0,149.4 L200.0,148.9 L205.0,147.9 L210.0,147.6 L215.0,146.6 L220.0,146.7 L225.0,147.0 L230.0,147.2 L235.0,147.7 L240.0,148.3 L245.0,149.5 L250.0,151.1 L255.0,152.3 L260.0,152.8 L265.0,154.4 L270.0,154.1 L275.0,154.3 L280.0,154.5 L285.0,152.7 L290.0,150.7 L295.0,148.9 L300.0,146.4 L305.0,145.4 L310.0,143.3 L315.0,142.7 L320.0,141.6 L325.0,140.9 L330.0,141.5 L335.0,142.6 L340.0,143.6 L345.0,145.1 L350.0,147.7 L355.0,149.7 L360.0,152.0 L365.0,153.8 L370.0,155.1 L375.0,155.9 L380.0,156.0 L416.0,156.0 L416,364 L24,364 Z" fill="#0d1117" stroke="none"/>
<path d="M24.0,156.0 L60.0,156.0 L65.0,155.7 L70.0,154.6 L75.0,153.4 L80.0,152.3 L85.0,151.4 L90.0,151.1 L95.0,152.2 L100.0,153.5 L105.0,154.9 L110.0,156.7 L115.0,156.9 L120.0,156.5 L125.0,156.0 L130.0,155.8 L135.0,155.1 L140.0,154.4 L145.0,153.8 L150.0,152.4 L155.0,152.7 L160.0,151.4 L165.0,152.1 L170.0,151.4 L175.0,151.6 L180.0,150.2 L185.0,149.7 L190.0,150.0 L195.0,149.4 L200.0,148.9 L205.0,147.9 L210.0,147.6 L215.0,146.6 L220.0,146.7 L225.0,147.0 L230.0,147.2 L235.0,147.7 L240.0,148.3 L245.0,149.5 L250.0,151.1 L255.0,152.3 L260.0,152.8 L265.0,154.4 L270.0,154.1 L275.0,154.3 L280.0,154.5 L285.0,152.7 L290.0,150.7 L295.0,148.9 L300.0,146.4 L305.0,145.4 L310.0,143.3 L315.0,142.7 L320.0,141.6 L325.0,140.9 L330.0,141.5 L335.0,142.6 L340.0,143.6 L345.0,145.1 L350.0,147.7 L355.0,149.7 L360.0,152.0 L365.0,153.8 L370.0,155.1 L375.0,155.9 L380.0,156.0 L416.0,156.0" fill="none" stroke="#c9d1d9" stroke-width="1" stroke-linejoin="round"/>
<path d="M24.0,172.0 L60.0,172.0 L65.0,171.5 L70.0,170.4 L75.0,168.5 L80.0,166.8 L85.0,165.4 L90.0,163.5 L95.0,162.5 L100.0,162.8 L105.0,162.6 L110.0,162.7 L115.0,163.1 L120.0,162.6 L125.0,163.3 L130.0,164.0 L135.0,164.8 L140.0,166.3 L145.0,167.8 L150.0,167.8 L155.0,169.0 L160.0,169.7 L165.0,169.9 L170.0,169.4 L175.0,168.6 L180.0,167.6 L185.0,166.6 L190.0,165.7 L195.0,164.9 L200.0,163.8 L205.0,163.3 L210.0,164.2 L215.0,163.7 L220.0,163.8 L225.0,164.8 L230.0,165.9 L235.0,166.0 L240.0,167.0 L245.0,166.8 L250.0,167.1 L255.0,167.5 L260.0,167.7 L265.0,167.2 L270.0,167.9 L275.0,166.7 L280.0,167.1 L285.0,167.4 L290.0,168.1 L295.0,168.0 L300.0,169.0 L305.0,169.6 L310.0,170.4 L315.0,171.3 L320.0,172.1 L325.0,172.3 L330.0,172.3 L335.0,171.0 L340.0,169.7 L345.0,168.5 L350.0,168.0 L355.0,167.5 L360.0,168.2 L365.0,169.5 L370.0,170.6 L375.0,171.6 L380.0,172.0 L416.0,172.0 L416,364 L24,364 Z" fill="#0d1117" stroke="none"/>
<path d="M24.0,172.0 L60.0,172.0 L65.0,171.5 L70.0,170.4 L75.0,168.5 L80.0,166.8 L85.0,165.4 L90.0,163.5 L95.0,162.5 L100.0,162.8 L105.0,162.6 L110.0,162.7 L115.0,163.1 L120.0,162.6 L125.0,163.3 L130.0,164.0 L135.0,164.8 L140.0,166.3 L145.0,167.8 L150.0,167.8 L155.0,169.0 L160.0,169.7 L165.0,169.9 L170.0,169.4 L175.0,168.6 L180.0,167.6 L185.0,166.6 L190.0,165.7 L195.0,164.9 L200.0,163.8 L205.0,163.3 L210.0,164.2 L215.0,163.7 L220.0,163.8 L225.0,164.8 L230.0,165.9 L235.0,166.0 L240.0,167.0 L245.0,166.8 L250.0,167.1 L255.0,167.5 L260.0,167.7 L265.0,167.2 L270.0,167.9 L275.0,166.7 L280.0,167.1 L285.0,167.4 L290.0,168.1 L295.0,168.0 L300.0,169.0 L305.0,169.6 L310.0,170.4 L315.0,171.3 L320.0,172.1 L325.0,172.3 L330.0,172.3 L335.0,171.0 L340.0,169.7 L345.0,168.5 L350.0,168.0 L355.0,167.5 L360.0,168.2 L365.0,169.5 L370.0,170.6 L375.0,171.6 L380.0,172.0 L416.0,172.0" fill="none" stroke="#c9d1d9" stroke-width="1" stroke-linejoin="round"/>
<path d="M24.0,188.0 L60.0,188.0 L65.0,187.6 L70.0,186.9 L75.0,186.0 L80.0,184.6 L85.0,183.9 L90.0,183.1 L95.0,182.7 L100.0,182.3 L105.0,182.4 L110.0,183.2 L115.0,183.9 L120.0,183.2 L125.0,183.2 L130.0,183.1 L135.0,182.4 L140.0,182.5 L145.0,182.0 L150.0,182.1 L155.0,182.3 L160.0,181.3 L165.0,181.5 L170.0,180.8 L175.0,181.3 L180.0,180.8 L185.0,180.9 L190.0,180.6 L195.0,181.7 L200.0,181.0 L205.0,181.6 L210.0,181.4 L215.0,180.9 L220.0,181.8 L225.0,181.2 L230.0,181.8 L235.0,182.2 L240.0,182.1 L245.0,182.3 L250.0,183.7 L255.0,183.3 L260.0,184.7 L265.0,185.3 L270.0,184.9 L275.0,185.3 L280.0,184.1 L285.0,183.3 L290.0,182.3 L295.0,181.9 L300.0,180.1 L305.0,180.0 L310.0,179.7 L315.0,179.2 L320.0,179.4 L325.0,178.7 L330.0,180.3 L335.0,180.0 L340.0,180.9 L345.0,181.2 L350.0,182.6 L355.0,184.0 L360.0,184.9 L365.0,186.3 L370.0,187.2 L375.0,187.8 L380.0,188.0 L416.0,188.0 L416,364 L24,364 Z" fill="#0d1117" stroke="none"/>
<path d="M24.0,188.0 L60.0,188.0 L65.0,187.6 L70.0,186.9 L75.0,186.0 L80.0,184.6 L85.0,183.9 L90.0,183.1 L95.0,182.7 L100.0,182.3 L105.0,182.4 L110.0,183.2 L115.0,183.9 L120.0,183.2 L125.0,183.2 L130.0,183.1 L135.0,182.4 L140.0,182.5 L145.0,182.0 L150.0,182.1 L155.0,182.3 L160.0,181.3 L165.0,181.5 L170.0,180.8 L175.0,181.3 L180.0,180.8 L185.0,180.9 L190.0,180.6 L195.0,181.7 L200.0,181.0 L205.0,181.6 L210.0,181.4 L215.0,180.9 L220.0,181.8 L225.0,181.2 L230.0,181.8 L235.0,182.2 L240.0,182.1 L245.0,182.3 L250.0,183.7 L255.0,183.3 L260.0,184.7 L265.0,185.3 L270.0,184.9 L275.0,185.3 L280.0,184.1 L285.0,183.3 L290.0,182.3 L295.0,181.9 L300.0,180.1 L305.0,180.0 L310.0,179.7 L315.0,179.2 L320.0,179.4 L325.0,178.7 L330.0,180.3 L335.0,180.0 L340.0,180.9 L345.0,181.2 L350.0,182.6 L355.0,184.0 L360.0,184.9 L365.0,186.3 L370.0,187.2 L375.0,187.8 L380.0,188.0 L416.0,188.0" fill="none" stroke="#c9d1d9" stroke-width="1" stroke-linejoin="round"/>
<path d="M24.0,204.0 L60.0,204.0 L65.0,203.7 L70.0,202.8 L75.0,201.4 L80.0,200.3 L85.0,199.8 L90.0,199.4 L95.0,200.3 L100.0,200.6 L105.0,201.9 L110.0,202.0 L115.0,202.3 L120.0,200.9 L125.0,199.6 L130.0,198.5 L135.0,197.4 L140.0,196.6 L145.0,195.1 L150.0,194.7 L155.0,193.2 L160.0,194.0 L165.0,194.0 L170.0,194.0 L175.0,194.8 L180.0,195.3 L185.0,197.3 L190.0,198.7 L195.0,199.7 L200.0,201.3 L205.0,202.0 L210.0,203.5 L215.0,205.0 L220.0,204.7 L225.0,204.6 L230.0,204.9 L235.0,205.0 L240.0,203.9 L245.0,204.2 L250.0,204.1 L255.0,204.3 L260.0,204.7 L265.0,205.0 L270.0,205.4 L275.0,205.9 L280.0,204.9 L285.0,204.5 L290.0,203.6 L295.0,203.0 L300.0,202.1 L305.0,201.7 L310.0,201.5 L315.0,200.5 L320.0,199.3 L325.0,199.5 L330.0,198.6 L335.0,197.8 L340.0,197.6 L345.0,198.1 L350.0,198.6 L355.0,199.6 L360.0,200.6 L365.0,201.8 L370.0,202.8 L375.0,203.5 L380.0,204.0 L416.0,204.0 L416,364 L24,364 Z" fill="#0d1117" stroke="none"/>
<path d="M24.0,204.0 L60.0,204.0 L65.0,203.7 L70.0,202.8 L75.0,201.4 L80.0,200.3 L85.0,199.8 L90.0,199.4 L95.0,200.3 L100.0,200.6 L105.0,201.9 L110.0,202.0 L115.0,202.3 L120.0,200.9 L125.0,199.6 L130.0,198.5 L135.0,197.4 L140.0,196.6 L145.0,195.1 L150.0,194.7 L155.0,193.2 L160.0,194.0 L165.0,194.0 L170.0,194.0 L175.0,194.8 L180.0,195.3 L185.0,197.3 L190.0,198.7 L195.0,199.7 L200.0,201.3 L205.0,202.0 L210.0,203.5 L215.0,205.0 L220.0,204.7 L225.0,204.6 L230.0,204.9 L235.0,205.0 L240.0,203.9 L245.0,204.2 L250.0,204.1 L255.0,204.3 L260.0,204.7 L265.0,205.0 L270.0,205.4 L275.0,205.9 L280.0,204.9 L285.0,204.5 L290.0,203.6 L295.0,203.0 L300.0,202.1 L305.0,201.7 L310.0,201.5 L315.0,200.5 L320.0,199.3 L325.0,199.5 L330.0,198.6 L335.0,197.8 L340.0,197.6 L345.0,198.1 L350.0,198.6 L355.0,199.6 L360.0,200.6 L365.0,201.8 L370.0,202.8 L375.0,203.5 L380.0,204.0 L416.0,204.0" fill="none" stroke="#c9d1d9" stroke-width="1" stroke-linejoin="round"/>
<path d="M24.0,220.0 L60.0,220.0 L65.0,219.6 L70.0,218.6 L75.0,217.3 L80.0,216.2 L85.0,215.7 L90.0,215.6 L95.0,215.9 L100.0,217.6 L105.0,219.4 L110.0,220.0 L115.0,220.5 L120.0,219.8 L125.0,219.3 L130.0,219.0 L135.0,217.7 L140.0,217.2 L145.0,217.3 L150.0,216.5 L155.0,215.8 L160.0,215.2 L165.0,215.4 L170.0,215.1 L175.0,214.9 L180.0,214.8 L185.0,215.3 L190.0,214.4 L195.0,213.7 L200.0,213.7 L205.0,213.8 L210.0,212.5 L215.0,211.7 L220.0,211.6 L225.0,211.5 L230.0,210.8 L235.0,209.9 L240.0,210.4 L245.0,210.9 L250.0,210.1 L255.0,210.9 L260.0,209.9 L265.0,211.2 L270.0,211.0 L275.0,210.5 L280.0,210.5 L285.0,211.7 L290.0,211.5 L295.0,211.4 L300.0,210.8 L305.0,210.5 L310.0,210.8 L315.0,211.0 L320.0,210.3 L325.0,210.6 L330.0,210.7 L335.0,209.1 L340.0,208.1 L345.0,208.1 L350.0,208.5 L355.0,209.9 L360.0,212.2 L365.0,215.1 L370.0,217.4 L375.0,219.3 L380.0,220.0 L416.0,220.0 L416,364 L24,364 Z" fill="#0d1117" stroke="none"/>
<path d="M24.0,220.0 L60.0,220.0 L65.0,219.6 L70.0,218.6 L75.0,217.3 L80.0,216.2 L85.0,215.7 L90.0,215.6 L95.0,215.9 L100.0,217.6 L105.0,219.4 L110.0,220.0 L115.0,220.5 L120.0,219.8 L125.0,219.3 L130.0,219.0 L135.0,217.7 L140.0,217.2 L145.0,217.3 L150.0,216.5 L155.0,215.8 L160.0,215.2 L165.0,215.4 L170.0,215.1 L175.0,214.9 L180.0,214.8 L185.0,215.3 L190.0,214.4 L195.0,213.7 L200.0,213.7 L205.0,213.8 L210.0,212.5 L215.0,211.7 L220.0,211.6 L225.0,211.5 L230.0,210.8 L235.0,209.9 L240.0,210.4 L245.0,210.9 L250.0,210.1 L255.0,210.9 L260.0,209.9 L265.0,211.2 L270.0,211.0 L275.0,210.5 L280.0,210.5 L285.0,211.7 L290.0,211.5 L295.0,211.4 L300.0,210.8 L305.0,210.5 L310.0,210.8 L315.0,211.0 L320.0,210.3 L325.0,210.6 L330.0,210.7 L335.0,209.1 L340.0,208.1 L345.0,208.1 L350.0,208.5 L355.0,209.9 L360.0,212.2 L365.0,215.1 L370.0,217.4 L375.0,219.3 L380.0,220.0 L416.0,220.0" fill="none" stroke="#c9d1d9" stroke-width="1" stroke-linejoin="round"/>
<path d="M24.0,236.0 L60.0,236.0 L65.0,235.4 L70.0,233.7 L75.0,231.1 L80.0,228.2 L85.0,225.4 L90.0,223.5 L95.0,222.2 L100.0,221.0 L105.0,221.3 L110.0,222.3 L115.0,221.7 L120.0,222.4 L125.0,221.7 L130.0,222.9 L135.0,222.6 L140.0,222.3 L145.0,222.7 L150.0,222.6 L155.0,222.2 L160.0,222.3 L165.0,222.5 L170.0,222.6 L175.0,222.3 L180.0,221.9 L185.0,220.4 L190.0,219.6 L195.0,219.1 L200.0,219.3 L205.0,219.4 L210.0,219.4 L215.0,219.8 L220.0,219.0 L225.0,220.3 L230.0,220.7 L235.0,220.9 L240.0,221.6 L245.0,222.3 L250.0,222.7 L255.0,223.1 L260.0,223.9 L265.0,223.2 L270.0,224.0 L275.0,224.5 L280.0,224.4 L285.0,224.6 L290.0,224.6 L295.0,224.7 L300.0,225.9 L305.0,227.3 L310.0,227.5 L315.0,227.8 L320.0,228.4 L325.0,229.1 L330.0,228.0 L335.0,227.1 L340.0,226.0 L345.0,224.3 L350.0,224.8 L355.0,226.3 L360.0,228.5 L365.0,231.1 L370.0,233.4 L375.0,235.3 L380.0,236.0 L416.0,236.0 L416,364 L24,364 Z" fill="#0d1117" stroke="none"/>
<path d="M24.0,236.0 L60.0,236.0 L65.0,235.4 L70.0,233.7 L75.0,231.1 L80.0,228.2 L85.0,225.4 L90.0,223.5 L95.0,222.2 L100.0,221.0 L105.0,221.3 L110.0,222.3 L115.0,221.7 L120.0,222.4 L125.0,221.7 L130.0,222.9 L135.0,222.6 L140.0,222.3 L145.0,222.7 L150.0,222.6 L155.0,222.2 L160.0,222.3 L165.0,222.5 L170.0,222.6 L175.0,222.3 L180.0,221.9 L185.0,220.4 L190.0,219.6 L195.0,219.1 L200.0,219.3 L205.0,219.4 L210.0,219.4 L215.0,219.8 L220.0,219.0 L225.0,220.3 L230.0,220.7 L235.0,220.9 L240.0,221.6 L245.0,222.3 L250.0,222.7 L255.0,223.1 L260.0,223.9 L265.0,223.2 L270.0,224.0 L275.0,224.5 L280.0,224.4 L285.0,224.6 L290.0,224.6 L295.0,224.7 L300.0,225.9 L305.0,227.3 L310.0,227.5 L315.0,227.8 L320.0,228.4 L325.0,229.1 L330.0,228.0 L335.0,227.1 L340.0,226.0 L345.0,224.3 L350.0,224.8 L355.0,226.3 L360.0,228.5 L365.0,231.1 L370.0,233.4 L375.0,235.3 L380.0,236.0 L416.0,236.0" fill="none" stroke="#c9d1d9" stroke-width="1" stroke-linejoin="round"/>
<path d="M24.0,252.0 L60.0,252.0 L65.0,251.2 L70.0,249.5 L75.0,247.2 L80.0,244.9 L85.0,242.9 L90.0,241.2 L95.0,239.9 L100.0,240.2 L105.0,241.3 L110.0,242.0 L115.0,242.9 L120.0,242.0 L125.0,242.1 L130.0,241.6 L135.0,241.9 L140.0,240.9 L145.0,240.5 L150.0,239.8 L155.0,239.7 L160.0,238.9 L165.0,237.7 L170.0,237.8 L175.0,237.3 L180.0,235.8 L185.0,234.9 L190.0,235.0 L195.0,233.4 L200.0,233.0 L205.0,232.5 L210.0,232.1 L215.0,231.7 L220.0,231.1 L225.0,231.3 L230.0,231.0 L235.0,231.9 L240.0,231.2 L245.0,230.9 L250.0,231.8 L255.0,230.5 L260.0,231.2 L265.0,231.1 L270.0,230.4 L275.0,229.9 L280.0,230.1 L285.0,228.7 L290.0,229.0 L295.0,229.4 L300.0,230.2 L305.0,230.1 L310.0,230.9 L315.0,231.1 L320.0,232.1 L325.0,232.1 L330.0,232.8 L335.0,232.8 L340.0,232.8 L345.0,232.8 L350.0,235.5 L355.0,237.9 L360.0,241.7 L365.0,245.5 L370.0,248.8 L375.0,251.2 L380.0,252.0 L416.0,252.0 L416,364 L24,364 Z" fill="#0d1117" stroke="none"/>
<path d="M24.0,252.0 L60.0,252.0 L65.0,251.2 L70.0,249.5 L75.0,247.2 L80.0,244.9 L85.0,242.9 L90.0,241.2 L95.0,239.9 L100.0,240.2 L105.0,241.3 L110.0,242.0 L115.0,242.9 L120.0,242.0 L125.0,242.1 L130.0,241.6 L135.0,241.9 L140.0,240.9 L145.0,240.5 L150.0,239.8 L155.0,239.7 L160.0,238.9 L165.0,237.7 L170.0,237.8 L175.0,237.3 L180.0,235.8 L185.0,234.9 L190.0,235.0 L195.0,233.4 L200.0,233.0 L205.0,232.5 L210.0,232.1 L215.0,231.7 L220.0,231.1 L225.0,231.3 L230.0,231.0 L235.0,231.9 L240.0,231.2 L245.0,230.9 L250.0,231.8 L255.0,230.5 L260.0,231.2 L265.0,231.1 L270.0,230.4 L275.0,229.9 L280.0,230.1 L285.0,228.7 L290.0,229.0 L295.0,229.4 L300.0,230.2 L305.0,230.1 L310.0,230.9 L315.0,231.1 L320.0,232.1 L325.0,232.1 L330.0,232.8 L335.0,232.8 L340.0,232.8 L345.0,232.8 L350.0,235.5 L355.0,237.9 L360.0,241.7 L365.0,245.5 L370.0,248.8 L375.0,251.2 L380.0,252.0 L416.0,252.0" fill="none" stroke="#c9d1d9" stroke-width="1" stroke-linejoin="round"/>
<path d="M24.0,268.0 L60.0,268.0 L65.0,267.2 L70.0,264.9 L75.0,261.8 L80.0,258.2 L85.0,255.2 L90.0,252.7 L95.0,250.6 L100.0,249.3 L105.0,250.0 L110.0,250.2 L115.0,249.6 L120.0,249.0 L125.0,247.9 L130.0,247.0 L135.0,246.6 L140.0,246.7 L145.0,245.6 L150.0,245.2 L155.0,244.9 L160.0,244.5 L165.0,244.8 L170.0,244.6 L175.0,246.3 L180.0,246.3 L185.0,247.8 L190.0,248.6 L195.0,249.4 L200.0,250.8 L205.0,251.6 L210.0,252.5 L215.0,253.5 L220.0,253.9 L225.0,253.6 L230.0,252.8 L235.0,252.9 L240.0,252.9 L245.0,252.1 L250.0,251.4 L255.0,252.0 L260.0,251.5 L265.0,250.9 L270.0,251.0 L275.0,251.6 L280.0,251.8 L285.0,252.2 L290.0,251.9 L295.0,252.1 L300.0,252.2 L305.0,252.7 L310.0,252.5 L315.0,252.8 L320.0,252.8 L325.0,252.9 L330.0,253.0 L335.0,251.3 L340.0,250.4 L345.0,250.5 L350.0,251.9 L355.0,254.0 L360.0,257.2 L365.0,260.8 L370.0,264.4 L375.0,266.9 L380.0,268.0 L416.0,268.0 L416,364 L24,364 Z" fill="#0d1117" stroke="none"/>
<path d="M24.0,268.0 L60.0,268.0 L65.0,267.2 L70.0,264.9 L75.0,261.8 L80.0,258.2 L85.0,255.2 L90.0,252.7 L95.0,250.6 L100.0,249.3 L105.0,250.0 L110.0,250.2 L115.0,249.6 L120.0,249.0 L125.0,247.9 L130.0,247.0 L135.0,246.6 L140.0,246.7 L145.0,245.6 L150.0,245.2 L155.0,244.9 L160.0,244.5 L165.0,244.8 L170.0,244.6 L175.0,246.3 L180.0,246.3 L185.0,247.8 L190.0,248.6 L195.0,249.4 L200.0,250.8 L205.0,251.6 L210.0,252.5 L215.0,253.5 L220.0,253.9 L225.0,253.6 L230.0,252.8 L235.0,252.9 L240.0,252.9 L245.0,252.1 L250.0,251.4 L255.0,252.0 L260.0,251.5 L265.0,250.9 L270.0,251.0 L275.0,251.6 L280.0,251.8 L285.0,252.2 L290.0,251.9 L295.0,252.1 L300.0,252.2 L305.0,252.7 L310.0,252.5 L315.0,252.8 L320.0,252.8 L325.0,252.9 L330.0,253.0 L335.0,251.3 L340.0,250.4 L345.0,250.5 L350.0,251.9 L355.0,254.0 L360.0,257.2 L365.0,260.8 L370.0,264.4 L375.0,266.9 L380.0,268.0 L416.0,268.0" fill="none" stroke="#c9d1d9" stroke-width="1" stroke-linejoin="round"/>
<path d="M24.0,284.0 L60.0,284.0 L65.0,283.1 L70.0,280.7 L75.0,277.2 L80.0,273.6 L85.0,270.1 L90.0,267.5 L95.0,266.2 L100.0,265.0 L105.0,266.4 L110.0,266.3 L115.0,267.1 L120.0,266.1 L125.0,266.3 L130.0,265.0 L135.0,265.1 L140.0,265.1 L145.0,264.7 L150.0,263.7 L155.0,263.9 L160.0,263.3 L165.0,264.0 L170.0,263.4 L175.0,264.1 L180.0,264.1 L185.0,263.5 L190.0,262.4 L195.0,261.1 L200.0,261.3 L205.0,259.8 L210.0,259.2 L215.0,257.9 L220.0,257.2 L225.0,256.9 L230.0,257.0 L235.0,256.3 L240.0,257.2 L245.0,257.3 L250.0,256.9 L255.0,258.1 L260.0,258.1 L265.0,258.3 L270.0,258.7 L275.0,259.4 L280.0,259.4 L285.0,258.4 L290.0,258.7 L295.0,258.6 L300.0,257.4 L305.0,257.0 L310.0,255.7 L315.0,255.3 L320.0,255.8 L325.0,254.9 L330.0,254.5 L335.0,252.8 L340.0,252.1 L345.0,252.8 L350.0,255.7 L355.0,260.5 L360.0,266.4 L365.0,272.8 L370.0,278.3 L375.0,282.4 L380.0,284.0 L416.0,284.0 L416,364 L24,364 Z" fill="#0d1117" stroke="none"/>
<path d="M24.0,284.0 L60.0,284.0 L65.0,283.1 L70.0,280.7 L75.0,277.2 L80.0,273.6 L85.0,270.1 L90.0,267.5 L95.0,266.2 L100.0,265.0 L105.0,266.4 L110.0,266.3 L115.0,267.1 L120.0,266.1 L125.0,266.3 L130.0,265.0 L135.0,265.1 L140.0,265.1 L145.0,264.7 L150.0,263.7 L155.0,263.9 L160.0,263.3 L165.0,264.0 L170.0,263.4 L175.0,264.1 L180.0,264.1 L185.0,263.5 L190.0,262.4 L195.0,261.1 L200.0,261.3 L205.0,259.8 L210.0,259.2 L215.0,257.9 L220.0,257.2 L225.0,256.9 L230.0,257.0 L235.0,256.3 L240.0,257.2 L245.0,257.3 L250.0,256.9 L255.0,258.1 L260.0,258.1 L265.0,258.3 L270.0,258.7 L275.0,259.4 L280.0,259.4 L285.0,258.4 L290.0,258.7 L295.0,258.6 L300.0,257.4 L305.0,257.0 L310.0,255.7 L315.0,255.3 L320.0,255.8 L325.0,254.9 L330.0,254.5 L335.0,252.8 L340.0,252.1 L345.0,252.8 L350.0,255.7 L355.0,260.5 L360.0,266.4 L365.0,272.8 L370.0,278.3 L375.0,282.4 L380.0,284.0 L416.0,284.0" fill="none" stroke="#c9d1d9" stroke-width="1" stroke-linejoin="round"/>
<path d="M24.0,300.0 L60.0,300.0 L65.0,298.1 L70.0,292.7 L75.0,284.9 L80.0,276.3 L85.0,268.2 L90.0,261.8 L95.0,257.9 L100.0,258.0 L105.0,261.9 L110.0,267.7 L115.0,269.1 L120.0,268.7 L125.0,269.2 L130.0,268.8 L135.0,269.1 L140.0,268.1 L145.0,269.1 L150.0,268.7 L155.0,268.9 L160.0,268.4 L165.0,267.7 L170.0,268.0 L175.0,268.2 L180.0,270.0 L185.0,270.6 L190.0,272.9 L195.0,275.5 L200.0,279.0 L205.0,282.8 L210.0,288.6 L215.0,294.9 L220.0,297.9 L225.0,298.6 L230.0,299.0 L235.0,299.8 L240.0,299.4 L245.0,300.3 L250.0,301.6 L255.0,301.1 L260.0,302.4 L265.0,302.7 L270.0,303.0 L275.0,303.0 L280.0,302.9 L285.0,303.4 L290.0,303.8 L295.0,303.1 L300.0,303.2 L305.0,302.4 L310.0,302.4 L315.0,301.4 L320.0,301.9 L325.0,301.2 L330.0,300.6 L335.0,300.3 L340.0,299.9 L345.0,300.6 L350.0,300.5 L355.0,300.1 L360.0,300.0 L365.0,300.0 L370.0,300.1 L375.0,300.1 L380.0,300.0 L416.0,300.0 L416,364 L24,364 Z" fill="#0d1117" stroke="none"/>
<path d="M24.0,300.0 L60.0,300.0 L65.0,298.1 L70.0,292.7 L75.0,284.9 L80.0,276.3 L85.0,268.2 L90.0,261.8 L95.0,257.9 L100.0,258.0 L105.0,261.9 L110.0,267.7 L115.0,269.1 L120.0,268.7 L125.0,269.2 L130.0,268.8 L135.0,269.1 L140.0,268.1 L145.0,269.1 L150.0,268.7 L155.0,268.9 L160.0,268.4 L165.0,267.7 L170.0,268.0 L175.0,268.2 L180.0,270.0 L185.0,270.6 L190.0,272.9 L195.0,275.5 L200.0,279.0 L205.0,282.8 L210.0,288.6 L215.0,294.9 L220.0,297.9 L225.0,298.6 L230.0,299.0 L235.0,299.8 L240.0,299.4 L245.0,300.3 L250.0,301.6 L255.0,301.1 L260.0,302.4 L265.0,302.7 L270.0,303.0 L275.0,303.0 L280.0,302.9 L285.0,303.4 L290.0,303.8 L295.0,303.1 L300.0,303.2 L305.0,302.4 L310.0,302.4 L315.0,301.4 L320.0,301.9 L325.0,301.2 L330.0,300.6 L335.0,300.3 L340.0,299.9 L345.0,300.6 L350.0,300.5 L355.0,300.1 L360.0,300.0 L365.0,300.0 L370.0,300.1 L375.0,300.1 L380.0,300.0 L416.0,300.0" fill="none" stroke="#c9d1d9" stroke-width="1" stroke-linejoin="round"/>
<path d="M24.0,316.0 L60.0,316.0 L65.0,314.9 L70.0,312.5 L75.0,309.1 L80.0,305.7 L85.0,303.3 L90.0,302.1 L95.0,303.4 L100.0,306.5 L105.0,311.3 L110.0,316.5 L115.0,317.7 L120.0,318.0 L125.0,318.3 L130.0,318.8 L135.0,319.5 L140.0,318.7 L145.0,319.2 L150.0,318.6 L155.0,319.0 L160.0,318.3 L165.0,318.7 L170.0,318.5 L175.0,317.0 L180.0,317.8 L185.0,317.0 L190.0,316.2 L195.0,316.6 L200.0,316.1 L205.0,316.1 L210.0,316.2 L215.0,317.1 L220.0,316.8 L225.0,316.4 L230.0,317.0 L235.0,316.3 L240.0,316.8 L245.0,317.0 L250.0,316.5 L255.0,316.3 L260.0,315.2 L265.0,314.9 L270.0,314.9 L275.0,314.5 L280.0,314.3 L285.0,313.2 L290.0,313.5 L295.0,313.5 L300.0,313.1 L305.0,311.9 L310.0,312.2 L315.0,312.1 L320.0,313.0 L325.0,313.0 L330.0,314.1 L335.0,314.6 L340.0,315.0 L345.0,315.6 L350.0,316.0 L355.0,315.6 L360.0,316.2 L365.0,316.1 L370.0,316.3 L375.0,316.1 L380.0,316.0 L416.0,316.0 L416,364 L24,364 Z" fill="#0d1117" stroke="none"/>
<path d="M24.0,316.0 L60.0,316.0 L65.0,314.9 L70.0,312.5 L75.0,309.1 L80.0,305.7 L85.0,303.3 L90.0,302.1 L95.0,303.4 L100.0,306.5 L105.0,311.3 L110.0,316.5 L115.0,317.7 L120.0,318.0 L125.0,318.3 L130.0,318.8 L135.0,319.5 L140.0,318.7 L145.0,319.2 L150.0,318.6 L155.0,319.0 L160.0,318.3 L165.0,318.7 L170.0,318.5 L175.0,317.0 L180.0,317.8 L185.0,317.0 L190.0,316.2 L195.0,316.6 L200.0,316.1 L205.0,316.1 L210.0,316.2 L215.0,317.1 L220.0,316.8 L225.0,316.4 L230.0,317.0 L235.0,316.3 L240.0,316.8 L245.0,317.0 L250.0,316.5 L255.0,316.3 L260.0,315.2 L265.0,314.9 L270.0,314.9 L275.0,314.5 L280.0,314.3 L285.0,313.2 L290.0,313.5 L295.0,313.5 L300.0,313.1 L305.0,311.9 L310.0,312.2 L315.0,312.1 L320.0,313.0 L325.0,313.0 L330.0,314.1 L335.0,314.6 L340.0,315.0 L345.0,315.6 L350.0,316.0 L355.0,315.6 L360.0,316.2 L365.0,316.1 L370.0,316.3 L375.0,316.1 L380.0,316.0 L416.0,316.0" fill="none" stroke="#c9d1d9" stroke-width="1" stroke-linejoin="round"/>
</svg>